<?xml version="1.0" encoding="utf-8"?>
<!-- Generator: Adobe Illustrator 17.0.0, SVG Export Plug-In . SVG Version: 6.00 Build 0)  -->
<!DOCTYPE svg PUBLIC "-//W3C//DTD SVG 1.1//EN" "http://www.w3.org/Graphics/SVG/1.1/DTD/svg11.dtd">
<svg version="1.1" id="Ebene_1" xmlns="http://www.w3.org/2000/svg" xmlns:xlink="http://www.w3.org/1999/xlink" x="0px" y="0px"
	 width="120px" height="59px" viewBox="55.445 664.64 120 59" enable-background="new 55.445 664.64 120 59" xml:space="preserve">
<g>
	
		<linearGradient id="SVGID_1_" gradientUnits="userSpaceOnUse" x1="119.8926" y1="-99.4639" x2="170.3152" y2="-99.4639" gradientTransform="matrix(1 0 0 -1 0 596.28)">
		<stop  offset="0" style="stop-color:#EB6625"/>
		<stop  offset="1" style="stop-color:#CC1C32"/>
	</linearGradient>
	<path fill="url(#SVGID_1_)" d="M122.01,705.817c1.445,3.258,3.568,6.142,6.179,8.498l0.737-3.738
		c-1.532-1.648-2.831-3.512-3.803-5.571L122.01,705.817z M165.089,704.825c-3.491,7.572-11.134,12.835-20.019,12.835
		c-0.169,0-0.334-0.016-0.502-0.02l-0.615,3.158c0.37,0.018,0.742,0.031,1.117,0.031c10.672,0,19.773-6.64,23.456-16.005H165.089
		L165.089,704.825z M157.394,677.356c3.734,2.526,6.639,6.161,8.265,10.435h3.351c-1.899-5.817-5.825-10.715-10.98-13.812
		L157.394,677.356z M127.375,677.648l3.014,1.518c2.932-2.619,6.575-4.445,10.598-5.198l0.631-3.31
		C136.103,671.415,131.152,673.927,127.375,677.648"/>
	<polygon fill="#E6332A" points="145.313,664.656 142.928,676.77 155.045,676.77 157.402,664.656 	"/>
	<polygon fill="#CB1731" points="163.356,690.25 160.971,702.365 173.087,702.365 175.445,690.25 	"/>
	<polygon fill="#E94E24" points="131.221,711.51 128.836,723.624 140.953,723.624 143.31,711.51 	"/>
	<polygon fill="#7D8386" points="61.758,688.209 58.171,688.209 55.445,702.471 59.032,702.471 	"/>
	<path fill="#7D8386" d="M63.078,683.703c0-1.091-0.889-2.066-2.152-2.066c-1.262,0-2.41,1.005-2.41,2.353
		c0,1.119,0.889,2.095,2.152,2.095C61.93,686.085,63.078,685.081,63.078,683.703"/>
	<path fill="#7D8386" d="M73.284,688.209h-3.386l0.976-5.108l-3.73,0.742l-0.832,4.366h-2.411l-0.574,2.841h2.439l-1.291,6.83
		c-0.66,3.415,0.201,4.878,3.271,4.878c0.889,0,1.98-0.143,2.927-0.374l0.344-2.926c-0.517,0.115-1.062,0.201-1.779,0.201
		c-1.177,0-1.406-0.458-1.091-2.18l1.205-6.428h3.357L73.284,688.209z"/>
	<path fill="#7D8386" d="M93.382,691.022l-0.201,0.918c-0.574,3.014-3.099,7.691-5.137,7.691c-0.689,0-1.091-0.602-1.091-1.98
		c0-2.985,1.521-6.83,4.821-6.83C92.406,690.82,92.922,690.906,93.382,691.022 M97.456,688.381c-1.606-0.316-3.328-0.431-5.05-0.431
		c-6.255,0-9.154,4.993-9.154,10.388c0,3.042,1.148,4.447,3.358,4.447c2.841,0,4.821-2.726,5.968-4.849h0.057
		c-0.66,1.981-1.09,3.415-1.349,4.534h3.559C95.448,698.711,96.193,695.01,97.456,688.381"/>
	<path fill="#7D8386" d="M108.933,691.022l-0.201,0.918c-0.574,3.014-3.099,7.691-5.136,7.691c-0.689,0-1.091-0.602-1.091-1.98
		c0-2.985,1.521-6.83,4.82-6.83C107.957,690.82,108.474,690.906,108.933,691.022 M113.007,688.381
		c-1.607-0.316-3.329-0.431-5.05-0.431c-6.255,0-9.154,4.993-9.154,10.388c0,3.042,1.148,4.447,3.358,4.447
		c2.84,0,4.82-2.726,5.94-4.791l0.058,0.029c-0.804,2.238-1.148,3.271-1.464,4.907c-0.488,2.554-2.037,3.587-4.734,3.587
		c-1.32,0-2.784-0.287-3.931-0.832l-0.832,3.357c1.119,0.372,2.525,0.602,4.132,0.602c5.567,0,8.064-2.353,8.809-6.284
		L113.007,688.381z"/>
	<polygon fill="#7D8386" points="120.439,688.209 116.853,688.209 114.126,702.471 117.714,702.471 	"/>
	<path fill="#7D8386" d="M121.76,683.703c0-1.091-0.891-2.066-2.152-2.066s-2.41,1.005-2.41,2.353c0,1.119,0.889,2.095,2.152,2.095
		C120.612,686.085,121.76,685.081,121.76,683.703"/>
	<polygon fill="#7D8386" points="129.212,681.523 125.625,681.523 121.636,702.47 125.223,702.47 	"/>
	<path fill="#7D8386" d="M138.443,691.882c0,1.521-1.721,2.209-5.021,2.325c0.516-1.865,1.694-3.588,3.558-3.588
		C137.898,690.619,138.443,691.079,138.443,691.882 M142.002,691.394c0-1.722-1.091-3.472-4.621-3.472
		c-4.447,0-8.063,4.046-8.063,10.014c0,3.158,1.435,4.821,5.051,4.821c1.894,0,3.759-0.316,5.366-0.918l-0.058-2.812
		c-1.319,0.516-2.755,0.832-4.132,0.832c-1.981,0-2.611-0.459-2.611-2.095c0-0.344,0.058-0.832,0.085-1.119
		C137.87,696.502,142.002,695.181,142.002,691.394"/>
	<polygon fill="#7D8386" points="80.813,696.696 81.4,693.668 74.097,693.668 73.51,696.696 	"/>
</g>
</svg>
